<?xml version="1.0" encoding="utf-8"?>
<!-- Generator: Adobe Illustrator 23.0.0, SVG Export Plug-In . SVG Version: 6.00 Build 0)  -->
<svg version="1.1" id="Layer_1" xmlns="http://www.w3.org/2000/svg" xmlns:xlink="http://www.w3.org/1999/xlink" x="0px" y="0px"
	 viewBox="0 0 512 512" enable-background="new 0 0 512 512" xml:space="preserve">
<g>
	<g>
		<path fill="#2A7DE1" d="M369.2,243.3c-1.6-14.3-14.4-24.6-28.7-23l-165.5,27.2c-2.6,0.3-5.4,0.7-8.3,1.2
			c-3.6-16.7-20-27.3-36.7-23.8l9.5,43.2c0,0.1,0,0.3,0,0.4v0c1.6,14.3,14.4,24.6,28.7,23L263,281l-19.5,27.7
			c-4.6,6.5-3.5,15,2.1,19.5c5.6,4.5,14.2,3.7,19.5-2.1l45.8-50.3l35.2-3.9C360.4,270.4,370.7,257.5,369.2,243.3L369.2,243.3z"/>
	</g>
	<path fill="#FFFFFF" d="M467.2,434.2l-36.9-36.9l-18.5-18.5L408,375l-1.4-1.4C431.9,341.1,447,300.3,447,256
		c0-105.5-85.5-191-191-191S65,150.5,65,256s85.5,191,191,191c44.3,0,85.1-15.1,117.5-40.4l16,16l36.9,36.9l3.9,3.9l3.9,3.9
		c4.3,4.3,10.4,6.8,16.8,6.8c6.4,0,12.4-2.6,16.5-7C476.2,457.5,476.1,443.1,467.2,434.2z M361,361c-28.1,28.1-65.4,43.5-105,43.5
		s-77-15.5-105-43.5c-28.1-28.1-43.5-65.4-43.5-105c0-39.7,15.5-77,43.5-105c28.1-28.1,65.4-43.5,105-43.5s77,15.5,105,43.5
		c28.1,28.1,43.5,65.4,43.5,105C404.6,295.7,389.1,333,361,361z M451,466.2c0,0-0.1,0-0.1,0c0.3,0,0.5,0,0.8,0
		C451.4,466.2,451.2,466.2,451,466.2z"/>
	<path fill="#FFFFFF" d="M297,131.4c-7.2-2.8-10.3,8.8-3.2,11.6c31.6,12.1,57,36.2,71.6,66.5c3.3,7,13.7,0.9,10.4-6.1
		C359.7,170.1,331.4,144.5,297,131.4z"/>
</g>
</svg>
