<?xml version="1.0" encoding="utf-8"?>
<!-- Generator: Adobe Illustrator 23.0.0, SVG Export Plug-In . SVG Version: 6.00 Build 0)  -->
<svg version="1.1" id="Layer_1" xmlns="http://www.w3.org/2000/svg" xmlns:xlink="http://www.w3.org/1999/xlink" x="0px" y="0px"
	 viewBox="0 0 512 512" enable-background="new 0 0 512 512" xml:space="preserve">
<g>
	<rect fill="#A5C5ED" width="512" height="512"/>
</g>
<g display="none">
	<g display="inline">
		<path fill="#FFFFFF" d="M256,65C150.5,65,65,150.5,65,256s85.5,191,191,191s191-85.5,191-191S361.5,65,256,65z M256,404.6
			c-39.7,0-77-15.5-105-43.5c-28.1-28.1-43.5-65.4-43.5-105s15.5-77,43.5-105c28.1-28.1,65.4-43.5,105-43.5s77,15.5,105,43.5
			c28.1,28.1,43.5,65.4,43.5,105s-15.5,77-43.5,105C333,389.1,295.7,404.6,256,404.6z"/>
	</g>
	<g display="inline">
		<path fill="#FFFFFF" d="M467.2,434.2l-36.9-36.9l-18.5-18.5L408,375l-3.9-3.9c-4-4-8.1-4.8-10.8-4.8c-7.5,0-13.1,6-17.1,10.5
			c-0.7,0.7-1.4,1.5-2,2.2c-2.9,3-5.7,5.9-7.1,9.7c-1.2,3.1-2.3,9.3,4,15.6l18.5,18.5l36.9,36.9l3.9,3.9l3.9,3.9
			c4.3,4.3,10.4,6.8,16.8,6.8c6.4,0,12.4-2.6,16.5-7C476.2,457.5,476.1,443.1,467.2,434.2z M393.4,374
			C393.3,374,393.3,374,393.4,374C393.3,374,393.3,374,393.4,374C393.3,374,393.3,374,393.4,374z M398,376c-0.1-0.1-0.1-0.1-0.2-0.2
			C397.8,375.9,397.9,375.9,398,376z M397.3,375.5c-0.1-0.1-0.1-0.1-0.2-0.2C397.2,375.4,397.3,375.4,397.3,375.5z M396.7,375.1
			c-0.1,0-0.1-0.1-0.2-0.1C396.6,375,396.6,375,396.7,375.1z M395.9,374.6C395.9,374.6,395.9,374.6,395.9,374.6
			C395.9,374.6,395.9,374.6,395.9,374.6z M395.3,374.4c-0.1,0-0.1,0-0.2-0.1C395.2,374.3,395.3,374.4,395.3,374.4z M394.7,374.2
			c-0.1,0-0.1,0-0.2,0C394.6,374.2,394.6,374.2,394.7,374.2z M394.1,374.1c-0.1,0-0.1,0-0.2,0C394,374.1,394,374.1,394.1,374.1z
			 M384.9,378.8c-0.1,0.1-0.1,0.1-0.2,0.2C384.8,379,384.9,378.9,384.9,378.8z M392.7,374.1c-0.1,0-0.1,0-0.2,0
			C392.6,374.1,392.6,374.1,392.7,374.1z M392,374.2c-0.1,0-0.1,0-0.2,0C391.9,374.2,392,374.2,392,374.2z M391.2,374.4
			c0,0-0.1,0-0.1,0C391.2,374.4,391.2,374.4,391.2,374.4z M390.6,374.6c-0.1,0-0.1,0.1-0.2,0.1C390.5,374.7,390.5,374.7,390.6,374.6
			z M389.9,375c0,0-0.1,0-0.1,0.1C389.8,375,389.8,375,389.9,375z M389.1,375.4c-0.1,0-0.1,0.1-0.2,0.1
			C389,375.4,389.1,375.4,389.1,375.4z M388.5,375.8c-0.1,0-0.1,0.1-0.2,0.1C388.4,375.9,388.4,375.8,388.5,375.8z M387.7,376.4
			C387.7,376.4,387.7,376.4,387.7,376.4C387.7,376.4,387.7,376.4,387.7,376.4z M387.1,376.9c-0.1,0.1-0.1,0.1-0.2,0.2
			C386.9,377,387,377,387.1,376.9z M386.4,377.5c-0.1,0.1-0.1,0.1-0.2,0.2C386.3,377.6,386.3,377.5,386.4,377.5z M385.6,378.2
			c0,0-0.1,0.1-0.1,0.1C385.5,378.3,385.5,378.2,385.6,378.2z M384.2,379.6c0,0-0.1,0.1-0.1,0.1
			C384.1,379.6,384.2,379.6,384.2,379.6z M383.5,380.3c-0.1,0.1-0.1,0.1-0.2,0.2C383.3,380.5,383.4,380.4,383.5,380.3z M382.8,381.1
			c-0.1,0.1-0.1,0.1-0.2,0.2C382.7,381.2,382.7,381.1,382.8,381.1z M375.1,396.9c-0.5-0.7-0.8-1.4-1-2.1
			C374.3,395.5,374.6,396.2,375.1,396.9c0.4,0.5,0.8,1.1,1.4,1.7C376,398,375.5,397.5,375.1,396.9z M440.8,462.8
			c0.1,0.1,0.3,0.2,0.4,0.3C441.1,462.9,441,462.9,440.8,462.8z M442.1,463.7c0.2,0.1,0.3,0.2,0.5,0.3
			C442.4,463.8,442.3,463.8,442.1,463.7z M443.4,464.4c0.2,0.1,0.4,0.2,0.6,0.3C443.8,464.6,443.6,464.5,443.4,464.4z M444.8,465.1
			c0.2,0.1,0.4,0.1,0.6,0.2C445.2,465.2,445,465.1,444.8,465.1z M446.3,465.5c0.2,0.1,0.4,0.1,0.7,0.2
			C446.7,465.7,446.5,465.6,446.3,465.5z M447.8,465.9c0.2,0,0.5,0.1,0.7,0.1C448.3,466,448,466,447.8,465.9z M449.3,466.1
			c0.2,0,0.5,0,0.7,0C449.8,466.2,449.6,466.2,449.3,466.1z M450.9,466.2c0.3,0,0.5,0,0.8,0c-0.2,0-0.5,0-0.7,0
			C450.9,466.2,450.9,466.2,450.9,466.2z M460.6,462.8c0.4-0.3,0.8-0.7,1.1-1.1C461.4,462.1,461,462.5,460.6,462.8z M452.4,466.2
			c0.3,0,0.5-0.1,0.8-0.1C452.9,466.1,452.6,466.1,452.4,466.2z M453.9,466c0.3,0,0.5-0.1,0.8-0.2
			C454.4,465.8,454.1,465.9,453.9,466z M455.3,465.6c0.3-0.1,0.5-0.2,0.8-0.3C455.9,465.4,455.6,465.5,455.3,465.6z M456.7,465.1
			c0.3-0.1,0.5-0.2,0.8-0.4C457.3,464.9,457,465,456.7,465.1z M458.1,464.5c0.3-0.1,0.5-0.3,0.8-0.5
			C458.6,464.2,458.4,464.4,458.1,464.5z M459.4,463.7c0.3-0.2,0.6-0.4,0.8-0.6C460,463.3,459.7,463.5,459.4,463.7z M466.1,452.2
			c-0.2,1.5-0.5,2.9-1.1,4.4C465.6,455.1,465.9,453.7,466.1,452.2c0.1-0.5,0.1-1,0.1-1.5C466.2,451.2,466.1,451.7,466.1,452.2z"/>
	</g>
	<g display="inline">
		<path fill="#2A7DE1" d="M340.5,220.3l-165.5,27.2c-2.6,0.3-5.4,0.7-8.3,1.2c-3.6-16.7-20-27.3-36.7-23.8l9.5,43.2
			c0,0.1,0,0.3,0,0.4l0,0c1.6,14.3,14.4,24.6,28.7,23L263,281l-19.5,27.7c-4.6,6.5-3.5,15,2.1,19.5c5.6,4.5,14.2,3.7,19.5-2.1
			l45.8-50.3l35.2-3.9c14.3-1.6,24.6-14.4,23-28.7v0C367.6,229,354.8,218.7,340.5,220.3z"/>
	</g>
	<g display="inline">
		<g>
			<path fill="#FFFFFF" d="M293.8,142.9c31.6,12.1,57,36.2,71.6,66.5c3.3,7,13.7,0.9,10.4-6.1c-16-33.3-44.3-58.9-78.8-72
				C289.7,128.6,286.6,140.2,293.8,142.9L293.8,142.9z"/>
		</g>
	</g>
</g>
</svg>
